<?xml version="1.0" encoding="UTF-8" standalone="no"?>
<!-- Created with Inkscape (http://www.inkscape.org/) -->

<svg
   xmlns:dc="http://purl.org/dc/elements/1.1/"
   xmlns:cc="http://creativecommons.org/ns#"
   xmlns:rdf="http://www.w3.org/1999/02/22-rdf-syntax-ns#"
   xmlns:svg="http://www.w3.org/2000/svg"
   xmlns="http://www.w3.org/2000/svg"
   xmlns:sodipodi="http://sodipodi.sourceforge.net/DTD/sodipodi-0.dtd"
   xmlns:inkscape="http://www.inkscape.org/namespaces/inkscape"
   version="1.1"
   id="svg2"
   xml:space="preserve"
   width="160"
   height="48"
   viewBox="0 0 160.00001 48"
   sodipodi:docname="peakd_logo_white.svg"
   inkscape:version="0.92.3 (2405546, 2018-03-11)"><metadata
     id="metadata8"><rdf:RDF><cc:Work
         rdf:about=""><dc:format>image/svg+xml</dc:format><dc:type
           rdf:resource="http://purl.org/dc/dcmitype/StillImage" /><dc:title></dc:title></cc:Work></rdf:RDF></metadata><defs
     id="defs6" /><sodipodi:namedview
     pagecolor="#ffffff"
     bordercolor="#666666"
     borderopacity="1"
     objecttolerance="10"
     gridtolerance="10"
     guidetolerance="10"
     inkscape:pageopacity="0"
     inkscape:pageshadow="2"
     inkscape:window-width="1518"
     inkscape:window-height="772"
     id="namedview4"
     showgrid="false"
     inkscape:zoom="1.5974979"
     inkscape:cx="16.572367"
     inkscape:cy="75.065894"
     inkscape:window-x="335"
     inkscape:window-y="88"
     inkscape:window-maximized="0"
     inkscape:current-layer="g10" /><g
     id="g10"
     inkscape:groupmode="layer"
     inkscape:label="PEAKD_updated"
     transform="matrix(1.3333333,0,0,-1.3333333,0,47.999994)"><g
       id="g844"
       transform="matrix(0.11842605,0,0,0.11842605,10.149148,-17.171564)"><path
         inkscape:connector-curvature="0"
         id="path12"
         style="fill:#ffffff;fill-opacity:1;fill-rule:nonzero;stroke:none"
         d="m 15.2858,217.7084 h 21.9623 v 70.4985 h 25.6958 c 7.1742,0 13.2871,0.3294 18.3381,0.9885 5.0514,0.6587 9.444,1.5738 13.1775,2.745 3.7335,1.1713 6.8814,2.5988 9.4436,4.2826 2.5622,1.6838 4.8685,3.5507 6.9182,5.6004 8.3455,8.3458 12.5184,18.6679 12.5184,30.9668 0,6.003 -0.9516,11.6034 -2.8551,16.801 -1.9034,5.1976 -4.8316,9.8464 -8.7848,13.9459 -2.6354,2.9284 -5.4904,5.2344 -8.5652,6.9182 -3.0747,1.6838 -6.3692,2.9648 -9.883,3.8432 -3.5141,0.8785 -7.3207,1.4275 -11.4205,1.6472 -4.0994,0.2197 -8.5651,0.3294 -13.3968,0.3294 H 15.2858 Z m 21.9623,140.7773 h 30.7471 c 2.7817,0 6.0395,-0.1462 9.773,-0.4391 3.7335,-0.2928 7.2476,-1.2078 10.5418,-2.7087 3.2944,-1.5373 6.0763,-3.9532 8.3457,-7.3208 2.2695,-3.3307 3.4042,-8.0527 3.4042,-14.129 0,-6.4055 -1.2447,-11.4202 -3.7335,-15.044 -2.4891,-3.6236 -5.5639,-6.2958 -9.2243,-8.0527 -3.6603,-1.7203 -7.6135,-2.7819 -11.8595,-3.1479 -4.2461,-0.3662 -8.1993,-0.549 -11.8596,-0.549 H 37.2481 Z" /><path
         inkscape:connector-curvature="0"
         id="path14"
         style="fill:#ffffff;fill-opacity:1;fill-rule:nonzero;stroke:none"
         d="m 165.2349,217.7084 h 101.2456 v 18.8876 h -79.2833 v 53.1484 h 73.7926 v 18.8873 h -73.7926 v 48.7562 h 77.5261 v 18.8872 h -99.4884 z" /><path
         inkscape:connector-curvature="0"
         id="path16"
         style="fill:#ffffff;fill-opacity:1;fill-rule:nonzero;stroke:none"
         d="m 533.4622,217.7084 h 21.9622 v 84.115 l 73.1339,-84.115 h 30.7471 l -78.6245,87.6291 70.9378,70.9376 h -30.0883 l -66.106,-69.4003 v 69.4003 h -21.9622 z" /><path
         inkscape:connector-curvature="0"
         id="path18"
         style="fill:#e31337;fill-opacity:1;fill-rule:nonzero;stroke:none"
         d="m 697.2471,217.7084 h 44.5834 c 5.8566,0 11.4567,0.0732 16.8009,0.2197 5.3442,0.1463 10.4321,0.6222 15.2637,1.4276 4.8317,0.8053 9.4436,2.0863 13.8362,3.8432 4.3926,1.7572 8.5652,4.246 12.5184,7.4673 3.0747,2.3425 6.1494,5.4538 9.2242,9.3339 3.0747,3.8798 5.8932,8.5286 8.4555,13.9459 2.5622,5.4173 4.6485,11.5668 6.2591,18.4481 1.6104,6.8817 2.4157,14.6416 2.4157,23.2799 0,10.9811 -1.5006,21.6328 -4.5022,31.9549 -3.0014,10.3224 -8.0161,19.6563 -15.0441,28.0018 -4.3923,5.1244 -9.1873,9.0776 -14.3852,11.8596 -5.1976,2.7819 -10.5784,4.8316 -16.1422,6.1494 -5.5636,1.3179 -11.2005,2.0863 -16.9107,2.306 -5.7104,0.2197 -11.2008,0.3294 -16.4718,0.3294 h -45.9009 z m 21.9623,140.3382 h 26.3546 c 9.6633,0 17.8259,-0.915 24.4879,-2.7453 6.6617,-1.8301 12.5549,-5.527 17.6794,-11.0908 3.6604,-4.0998 6.552,-8.7118 8.6752,-13.8362 2.1228,-5.1245 3.6603,-10.0659 4.6119,-14.8244 0.9516,-4.7585 1.5373,-9.0411 1.7569,-12.848 0.2197,-3.8067 0.3294,-6.442 0.3294,-7.9064 0,-2.3426 -0.1462,-5.5636 -0.4391,-9.6633 -0.2928,-4.0995 -1.0981,-8.5286 -2.4159,-13.2871 -1.3176,-4.7585 -3.4042,-9.5534 -6.2592,-14.3853 -2.8551,-4.8316 -6.7717,-9.1508 -11.7496,-12.9574 -5.271,-3.9532 -11.6034,-6.4058 -18.9975,-7.3574 -7.3939,-0.9518 -14.8975,-1.4275 -22.5111,-1.4275 h -21.5229 z" /><path
         inkscape:connector-curvature="0"
         id="path20"
         style="fill:#e31337;fill-opacity:1;fill-rule:evenodd;stroke:none"
         d="m 398.5656,376.1189 24.649,-38.6645 -24.649,-38.6646 -24.6489,38.6646 z" /><path
         inkscape:connector-curvature="0"
         id="path22"
         style="fill:#808285;fill-opacity:1;fill-rule:evenodd;stroke:none"
         d="m 425.1365,334.2634 23.2656,-36.4949 -23.2656,-36.495 -23.2657,36.495 z" /><path
         inkscape:connector-curvature="0"
         id="path24"
         style="fill:#808285;fill-opacity:1;fill-rule:evenodd;stroke:none"
         d="m 371.5282,334.2634 23.2657,-36.4949 -23.2657,-36.495 -23.2659,36.495 z" /><path
         inkscape:connector-curvature="0"
         id="path26"
         style="fill:#ffffff;fill-opacity:1;fill-rule:evenodd;stroke:none"
         d="m 345.7446,293.6273 23.2656,-36.4949 -24.8587,-39.0645 h -46.3666 z" /><path
         inkscape:connector-curvature="0"
         id="path28"
         style="fill:#ffffff;fill-opacity:1;fill-rule:evenodd;stroke:none"
         d="m 450.2526,293.6273 -23.2657,-36.4949 24.859,-39.0645 h 46.3666 z" /></g></g></svg>